<svg width="2575" height="602" viewBox="0 0 2575 602" fill="none" xmlns="http://www.w3.org/2000/svg">
<path d="M308.809 382.562L309.789 382.761L309.789 382.759L308.809 382.562ZM309.492 379.145L310.473 379.341L310.712 378.145H309.492V379.145ZM264.717 379.145V378.145H263.915L263.741 378.928L264.717 379.145ZM264.033 382.221L264.991 382.509L265.001 382.474L265.009 382.438L264.033 382.221ZM46.9922 314.203V313.203H45.9759L45.9923 314.219L46.9922 314.203ZM313.936 314.203V315.203H314.936V314.203H313.936ZM268.477 278.314V279.314H269.545L269.474 278.249L268.477 278.314ZM47.6758 278.314L46.6784 278.242L46.6008 279.314H47.6758V278.314ZM162.861 488.494C240.15 488.494 297.373 444.151 309.789 382.761L307.828 382.364C295.635 442.653 239.381 486.494 162.861 486.494V488.494ZM309.789 382.759L310.473 379.341L308.512 378.948L307.828 382.366L309.789 382.759ZM309.492 378.145H264.717V380.145H309.492V378.145ZM263.741 378.928L263.057 382.004L265.009 382.438L265.693 379.361L263.741 378.928ZM263.076 381.933C251.605 420.057 215.825 446.162 163.887 446.162V448.162C216.538 448.162 253.22 421.631 264.991 382.509L263.076 381.933ZM163.887 446.162C129.094 446.162 100.499 434.205 80.4212 411.802C60.3303 389.385 48.6729 356.402 47.9921 314.187L45.9923 314.219C46.6786 356.77 58.4344 390.266 78.9318 413.137C99.4422 436.022 128.611 448.162 163.887 448.162V446.162ZM46.9922 315.203H313.936V313.203H46.9922V315.203ZM314.936 314.203V296.43H312.936V314.203H314.936ZM314.936 296.43C314.936 243.099 299.93 198.5 272.908 167.218C245.872 135.92 206.879 118.037 159.102 118.037V120.037C206.344 120.037 244.768 137.701 271.394 168.525C298.034 199.364 312.936 243.462 312.936 296.43H314.936ZM159.102 118.037C111.315 118.037 71.5539 136.525 43.7539 169.059C15.9663 201.578 0.191406 248.054 0.191406 303.949H2.19141C2.19141 248.419 17.8618 202.439 45.2744 170.358C72.6746 138.292 111.869 120.037 159.102 120.037V118.037ZM0.191406 303.949V304.291H2.19141V303.949H0.191406ZM0.191406 304.291C0.191406 360.693 15.7073 406.751 43.849 438.722C72.0036 470.709 112.708 488.494 162.861 488.494V486.494C113.21 486.494 73.0794 468.904 45.3502 437.401C17.6081 405.884 2.19141 360.34 2.19141 304.291H0.191406ZM158.76 160.369C188.942 160.369 214.816 170.621 233.788 190.438C252.77 210.265 264.927 239.757 267.479 278.38L269.474 278.249C266.9 239.284 254.618 209.303 235.233 189.055C215.838 168.796 189.418 158.369 158.76 158.369V160.369ZM268.477 277.314H47.6758V279.314H268.477V277.314ZM48.6732 278.387C51.3944 240.8 63.9717 211.301 83.3024 191.209C102.625 171.125 128.762 160.369 158.76 160.369V158.369C128.259 158.369 101.588 169.318 81.8612 189.822C62.1415 210.318 49.4259 240.292 46.6784 278.242L48.6732 278.387ZM338.203 481L337.384 480.427L336.283 482H338.203V481ZM389.131 481V482H389.665L389.962 481.556L389.131 481ZM486.885 335.053V334.053H486.351L486.054 334.496L486.885 335.053ZM487.91 335.053L488.742 334.498L488.445 334.053H487.91V335.053ZM585.322 481L584.491 481.555L584.787 482H585.322V481ZM636.25 481V482H638.142L637.076 480.437L636.25 481ZM513.203 300.531L512.388 299.952L511.985 300.519L512.377 301.095L513.203 300.531ZM637.617 125.531L638.432 126.111L639.555 124.531H637.617V125.531ZM586.348 125.531V124.531H585.818L585.52 124.97L586.348 125.531ZM489.619 268.061V269.061H490.149L490.447 268.622L489.619 268.061ZM488.252 268.061L487.426 268.625L487.724 269.061H488.252V268.061ZM390.84 125.531L391.665 124.967L391.368 124.531H390.84V125.531ZM339.57 125.531V124.531H337.649L338.751 126.105L339.57 125.531ZM463.301 302.24L464.12 302.814L464.521 302.24L464.12 301.667L463.301 302.24ZM338.203 482H389.131V480H338.203V482ZM389.962 481.556L487.716 335.609L486.054 334.496L388.3 480.444L389.962 481.556ZM486.885 336.053H487.91V334.053H486.885V336.053ZM487.078 335.608L584.491 481.555L586.154 480.445L488.742 334.498L487.078 335.608ZM585.322 482H636.25V480H585.322V482ZM637.076 480.437L514.029 299.968L512.377 301.095L635.424 481.563L637.076 480.437ZM514.018 301.111L638.432 126.111L636.802 124.952L512.388 299.952L514.018 301.111ZM637.617 124.531H586.348V126.531H637.617V124.531ZM585.52 124.97L488.792 267.499L490.447 268.622L587.175 126.093L585.52 124.97ZM489.619 267.061H488.252V269.061H489.619V267.061ZM489.078 267.496L391.665 124.967L390.014 126.096L487.426 268.625L489.078 267.496ZM390.84 124.531H339.57V126.531H390.84V124.531ZM338.751 126.105L462.482 302.814L464.12 301.667L340.389 124.958L338.751 126.105ZM462.481 301.667L337.384 480.427L339.022 481.573L464.12 302.814L462.481 301.667ZM684.102 600.629H683.102V601.629H684.102V600.629ZM729.219 600.629V601.629H730.219V600.629H729.219ZM729.219 406.83V405.83H728.219V406.83H729.219ZM730.586 406.83L731.511 406.451L731.257 405.83H730.586V406.83ZM730.586 200.727V201.727H731.256L731.511 201.107L730.586 200.727ZM729.219 200.727H728.219V201.727H729.219V200.727ZM729.219 125.531H730.219V124.531H729.219V125.531ZM684.102 125.531V124.531H683.102V125.531H684.102ZM684.102 601.629H729.219V599.629H684.102V601.629ZM730.219 600.629V406.83H728.219V600.629H730.219ZM729.219 407.83H730.586V405.83H729.219V407.83ZM729.661 407.209C749.292 455.081 794.766 488.494 851.924 488.494V486.494C795.606 486.494 750.845 453.598 731.511 406.451L729.661 407.209ZM851.924 488.494C896.822 488.494 934.619 470.249 961.174 437.971C987.715 405.709 1002.97 359.495 1002.97 303.607H1000.97C1000.97 359.145 985.811 404.875 959.629 436.7C933.462 468.508 896.235 486.494 851.924 486.494V488.494ZM1002.97 303.607V303.266H1000.97V303.607H1002.97ZM1002.97 303.266C1002.97 247.55 987.801 201.251 961.217 168.86C934.62 136.453 896.651 118.037 851.24 118.037V120.037C896.064 120.037 933.461 138.194 959.671 170.129C985.896 202.082 1000.97 247.898 1000.97 303.266H1002.97ZM851.24 118.037C793.722 118.037 749.627 151.809 729.661 200.346L731.511 201.107C751.194 153.257 794.598 120.037 851.24 120.037V118.037ZM730.586 199.727H729.219V201.727H730.586V199.727ZM730.219 200.727V125.531H728.219V200.727H730.219ZM729.219 124.531H684.102V126.531H729.219V124.531ZM683.102 125.531V600.629H685.102V125.531H683.102ZM843.379 446.162C810.368 446.162 782.11 431.867 762.085 406.93C742.047 381.978 730.219 346.325 730.219 303.607H728.219C728.219 346.681 740.146 382.805 760.525 408.183C780.917 433.575 809.74 448.162 843.379 448.162V446.162ZM730.219 303.607V303.266H728.219V303.607H730.219ZM730.219 303.266C730.219 260.374 741.963 224.636 761.958 199.642C781.94 174.665 810.196 160.369 843.379 160.369V158.369C809.57 158.369 780.746 172.955 760.396 198.393C740.059 223.814 728.219 260.024 728.219 303.266H730.219ZM843.379 160.369C877.257 160.369 905.077 174.246 924.452 198.993C943.846 223.765 954.83 259.501 954.83 303.266H956.83C956.83 259.189 945.769 222.977 926.027 197.76C906.266 172.52 877.86 158.369 843.379 158.369V160.369ZM954.83 303.266V303.607H956.83V303.266H954.83ZM954.83 303.607C954.83 347.029 943.846 382.68 924.452 407.453C905.076 432.201 877.255 446.162 843.379 446.162V448.162C877.862 448.162 906.267 433.925 926.027 408.686C945.768 383.47 956.83 347.344 956.83 303.607H954.83ZM1352.66 382.562L1353.64 382.761L1353.64 382.759L1352.66 382.562ZM1353.34 379.145L1354.32 379.341L1354.56 378.145H1353.34V379.145ZM1308.56 379.145V378.145H1307.76L1307.59 378.928L1308.56 379.145ZM1307.88 382.221L1308.84 382.509L1308.85 382.474L1308.86 382.438L1307.88 382.221ZM1090.84 314.203V313.203H1089.82L1089.84 314.219L1090.84 314.203ZM1357.78 314.203V315.203H1358.78V314.203H1357.78ZM1312.32 278.314V279.314H1313.39L1313.32 278.249L1312.32 278.314ZM1091.52 278.314L1090.53 278.242L1090.45 279.314H1091.52V278.314ZM1206.71 488.494C1284 488.494 1341.22 444.151 1353.64 382.761L1351.68 382.364C1339.48 442.653 1283.23 486.494 1206.71 486.494V488.494ZM1353.64 382.759L1354.32 379.341L1352.36 378.948L1351.68 382.366L1353.64 382.759ZM1353.34 378.145H1308.56V380.145H1353.34V378.145ZM1307.59 378.928L1306.9 382.004L1308.86 382.438L1309.54 379.361L1307.59 378.928ZM1306.92 381.933C1295.45 420.057 1259.67 446.162 1207.73 446.162V448.162C1260.39 448.162 1297.07 421.631 1308.84 382.509L1306.92 381.933ZM1207.73 446.162C1172.94 446.162 1144.35 434.205 1124.27 411.802C1104.18 389.385 1092.52 356.402 1091.84 314.187L1089.84 314.219C1090.53 356.77 1102.28 390.266 1122.78 413.137C1143.29 436.022 1172.46 448.162 1207.73 448.162V446.162ZM1090.84 315.203H1357.78V313.203H1090.84V315.203ZM1358.78 314.203V296.43H1356.78V314.203H1358.78ZM1358.78 296.43C1358.78 243.099 1343.78 198.5 1316.76 167.218C1289.72 135.92 1250.73 118.037 1202.95 118.037V120.037C1250.19 120.037 1288.62 137.701 1315.24 168.525C1341.88 199.364 1356.78 243.462 1356.78 296.43H1358.78ZM1202.95 118.037C1155.16 118.037 1115.4 136.525 1087.6 169.059C1059.81 201.578 1044.04 248.054 1044.04 303.949H1046.04C1046.04 248.419 1061.71 202.439 1089.12 170.358C1116.52 138.292 1155.72 120.037 1202.95 120.037V118.037ZM1044.04 303.949V304.291H1046.04V303.949H1044.04ZM1044.04 304.291C1044.04 360.693 1059.55 406.751 1087.7 438.722C1115.85 470.709 1156.56 488.494 1206.71 488.494V486.494C1157.06 486.494 1116.93 468.904 1089.2 437.401C1061.46 405.884 1046.04 360.34 1046.04 304.291H1044.04ZM1202.61 160.369C1232.79 160.369 1258.66 170.621 1277.64 190.438C1296.62 210.265 1308.77 239.757 1311.33 278.38L1313.32 278.249C1310.75 239.284 1298.47 209.303 1279.08 189.055C1259.69 168.796 1233.27 158.369 1202.61 158.369V160.369ZM1312.32 277.314H1091.52V279.314H1312.32V277.314ZM1092.52 278.387C1095.24 240.8 1107.82 211.301 1127.15 191.209C1146.47 171.125 1172.61 160.369 1202.61 160.369V158.369C1172.11 158.369 1145.44 169.318 1125.71 189.822C1105.99 210.318 1093.27 240.292 1090.53 278.242L1092.52 278.387ZM1418.28 481H1417.28V482H1418.28V481ZM1463.4 481V482H1464.4V481H1463.4ZM1579.95 167.23L1579.57 168.155L1580.95 168.724V167.23H1579.95ZM1579.95 123.139H1580.95V122.403L1580.25 122.184L1579.95 123.139ZM1462.37 187.396V188.396H1463.12L1463.33 187.682L1462.37 187.396ZM1461.01 187.396H1460.01V188.396H1461.01V187.396ZM1461.01 125.531H1462.01V124.531H1461.01V125.531ZM1418.28 125.531V124.531H1417.28V125.531H1418.28ZM1418.28 482H1463.4V480H1418.28V482ZM1464.4 481V258.832H1462.4V481H1464.4ZM1464.4 258.832C1464.4 230.473 1472.38 206.622 1486.55 189.88C1500.71 173.153 1521.1 163.445 1546.11 163.445V161.445C1520.54 161.445 1499.58 171.391 1485.02 188.588C1470.48 205.768 1462.4 230.111 1462.4 258.832H1464.4ZM1546.11 163.445C1561.43 163.445 1573.93 165.832 1579.57 168.155L1580.33 166.306C1574.35 163.844 1561.56 161.445 1546.11 161.445V163.445ZM1580.95 167.23V123.139H1578.95V167.23H1580.95ZM1580.25 122.184C1574.7 120.451 1564.01 118.037 1551.92 118.037V120.037C1563.77 120.037 1574.26 122.408 1579.65 124.093L1580.25 122.184ZM1551.92 118.037C1507.36 118.037 1474.18 144.33 1461.41 187.111L1463.33 187.682C1475.86 145.697 1508.3 120.037 1551.92 120.037V118.037ZM1462.37 186.396H1461.01V188.396H1462.37V186.396ZM1462.01 187.396V125.531H1460.01V187.396H1462.01ZM1461.01 124.531H1418.28V126.531H1461.01V124.531ZM1417.28 125.531V481H1419.28V125.531H1417.28ZM1767.94 484.76L1768.13 485.742L1768.94 485.587V484.76H1767.94ZM1767.94 447.846H1768.94V446.704L1767.81 446.854L1767.94 447.846ZM1697.53 163.471V162.471H1696.53V163.471H1697.53ZM1767.94 163.471V164.471H1768.94V163.471H1767.94ZM1767.94 125.531H1768.94V124.531H1767.94V125.531ZM1697.53 125.531H1696.53V126.531H1697.53V125.531ZM1697.53 29.4863H1698.53V28.4863H1697.53V29.4863ZM1651.04 29.4863V28.4863H1650.04V29.4863H1651.04ZM1651.04 125.531V126.531H1652.04V125.531H1651.04ZM1598.75 125.531V124.531H1597.75V125.531H1598.75ZM1598.75 163.471H1597.75V164.471H1598.75V163.471ZM1651.04 163.471H1652.04V162.471H1651.04V163.471ZM1738.2 488.494C1749.21 488.494 1760.89 487.12 1768.13 485.742L1767.75 483.777C1760.63 485.134 1749.07 486.494 1738.2 486.494V488.494ZM1768.94 484.76V447.846H1766.94V484.76H1768.94ZM1767.81 446.854C1762.67 447.539 1755.56 448.555 1747.43 448.555V450.555C1755.71 450.555 1762.95 449.519 1768.07 448.837L1767.81 446.854ZM1747.43 448.555C1730.96 448.555 1718.81 445.238 1710.75 437.266C1702.7 429.294 1698.53 416.459 1698.53 396.918H1696.53C1696.53 416.683 1700.74 430.167 1709.34 438.687C1717.95 447.207 1730.75 450.555 1747.43 450.555V448.555ZM1698.53 396.918V163.471H1696.53V396.918H1698.53ZM1697.53 164.471H1767.94V162.471H1697.53V164.471ZM1768.94 163.471V125.531H1766.94V163.471H1768.94ZM1767.94 124.531H1697.53V126.531H1767.94V124.531ZM1698.53 125.531V29.4863H1696.53V125.531H1698.53ZM1697.53 28.4863H1651.04V30.4863H1697.53V28.4863ZM1650.04 29.4863V125.531H1652.04V29.4863H1650.04ZM1651.04 124.531H1598.75V126.531H1651.04V124.531ZM1597.75 125.531V163.471H1599.75V125.531H1597.75ZM1598.75 164.471H1651.04V162.471H1598.75V164.471ZM1650.04 163.471V397.602H1652.04V163.471H1650.04ZM1650.04 397.602C1650.04 428.839 1657.25 451.618 1671.99 466.577C1686.74 481.54 1708.84 488.494 1738.2 488.494V486.494C1709.12 486.494 1687.64 479.605 1673.42 465.174C1659.19 450.739 1652.04 428.571 1652.04 397.602H1650.04ZM1834.59 481H1833.59V482H1834.59V481ZM1880.05 481V482H1881.05V481H1880.05ZM1880.05 125.531H1881.05V124.531H1880.05V125.531ZM1834.59 125.531V124.531H1833.59V125.531H1834.59ZM1857.49 62.2734C1874.46 62.2734 1888.23 48.4882 1888.23 31.1953H1886.23C1886.23 47.3985 1873.34 60.2734 1857.49 60.2734V62.2734ZM1888.23 31.1953C1888.23 13.8875 1874.44 0.458984 1857.49 0.458984V2.45898C1873.35 2.45898 1886.23 15.007 1886.23 31.1953H1888.23ZM1857.49 0.458984C1840.2 0.458984 1826.41 13.8801 1826.41 31.1953H1828.41C1828.41 15.0145 1841.28 2.45898 1857.49 2.45898V0.458984ZM1826.41 31.1953C1826.41 48.4956 1840.19 62.2734 1857.49 62.2734V60.2734C1841.29 60.2734 1828.41 47.3911 1828.41 31.1953H1826.41ZM1834.59 482H1880.05V480H1834.59V482ZM1881.05 481V125.531H1879.05V481H1881.05ZM1880.05 124.531H1834.59V126.531H1880.05V124.531ZM1833.59 125.531V481H1835.59V125.531H1833.59ZM2120.33 289.252L2120.57 288.28L2120.56 288.279L2120.33 289.252ZM2066.67 276.605L2066.44 277.578L2066.44 277.579L2066.67 276.605ZM2167.84 225.678L2166.85 225.817L2166.85 225.819L2167.84 225.678ZM2168.18 228.07L2167.19 228.212L2167.32 229.07H2168.18V228.07ZM2211.59 228.07V229.07H2212.69L2212.59 227.98L2211.59 228.07ZM2211.25 224.311L2212.25 224.22L2212.25 224.216L2211.25 224.311ZM2053.68 315.229L2053.92 314.257L2053.91 314.256L2053.68 315.229ZM2107.34 328.217L2107.11 329.189L2107.11 329.19L2107.34 328.217ZM1990.11 381.537L1991.09 381.365L1991.09 381.342L1991.08 381.32L1990.11 381.537ZM1989.42 378.461L1990.4 378.244L1990.23 377.461H1989.42V378.461ZM1944.31 378.461V377.461H1943.19L1943.31 378.571L1944.31 378.461ZM1944.65 381.537L1945.64 381.429L1945.64 381.427L1944.65 381.537ZM2083.76 488.494C2161.98 488.494 2219.09 445.554 2219.09 384.271H2217.09C2217.09 443.985 2161.4 486.494 2083.76 486.494V488.494ZM2219.09 384.271V383.93H2217.09V384.271H2219.09ZM2219.09 383.93C2219.09 358.778 2212.27 339.099 2196.44 323.572C2180.66 308.089 2156.01 296.841 2120.57 288.28L2120.1 290.224C2155.41 298.753 2179.64 309.892 2195.04 325C2210.4 340.064 2217.09 359.179 2217.09 383.93H2219.09ZM2120.56 288.279L2066.9 275.632L2066.44 277.579L2120.1 290.225L2120.56 288.279ZM2066.9 275.633C2043.56 270.009 2027.25 262.71 2016.79 253.386C2006.38 244.105 2001.7 232.763 2001.7 218.842H1999.7C1999.7 233.29 2004.59 245.19 2015.46 254.879C2026.28 264.524 2042.96 271.923 2066.44 277.578L2066.9 275.633ZM2001.7 218.842V218.5H1999.7V218.842H2001.7ZM2001.7 218.5C2001.7 200.711 2009.58 185.703 2023.4 175.117C2037.24 164.515 2057.09 158.318 2081.03 158.318V156.318C2056.77 156.318 2036.45 162.598 2022.18 173.529C2007.89 184.475 1999.7 200.059 1999.7 218.5H2001.7ZM2081.03 158.318C2105.62 158.318 2125.64 165.018 2140.21 176.767C2154.78 188.513 2163.98 205.364 2166.85 225.817L2168.83 225.539C2165.9 204.634 2156.47 187.306 2141.47 175.211C2126.47 163.12 2105.99 156.318 2081.03 156.318V158.318ZM2166.85 225.819L2167.19 228.212L2169.17 227.929L2168.83 225.536L2166.85 225.819ZM2168.18 229.07H2211.59V227.07H2168.18V229.07ZM2212.59 227.98L2212.25 224.22L2210.25 224.401L2210.6 228.161L2212.59 227.98ZM2212.25 224.216C2209.32 193.377 2195.61 166.812 2173.05 147.963C2150.5 129.119 2119.16 118.037 2081.03 118.037V120.037C2118.77 120.037 2149.64 131.001 2171.77 149.498C2193.9 167.991 2207.37 194.063 2210.25 224.405L2212.25 224.216ZM2081.03 118.037C2006.52 118.037 1953.56 160.33 1953.56 220.209H1955.56C1955.56 161.826 2007.19 120.037 2081.03 120.037V118.037ZM1953.56 220.209V220.551H1955.56V220.209H1953.56ZM1953.56 220.551C1953.56 245.407 1961.69 265.333 1978.31 281.049C1994.9 296.73 2019.87 308.15 2053.45 316.201L2053.91 314.256C2020.5 306.243 1995.91 294.934 1979.69 279.596C1963.5 264.294 1955.56 244.913 1955.56 220.551H1953.56ZM2053.45 316.2L2107.11 329.189L2107.58 327.245L2053.92 314.257L2053.45 316.2ZM2107.11 329.19C2130.82 334.817 2146.76 341.775 2156.78 351.04C2166.74 360.251 2170.94 371.837 2170.94 387.006H2172.94C2172.94 371.413 2168.6 359.244 2158.14 349.571C2147.74 339.952 2131.38 332.896 2107.57 327.244L2107.11 329.19ZM2170.94 387.006V387.348H2172.94V387.006H2170.94ZM2170.94 387.348C2170.94 405.63 2162.57 420.801 2147.57 431.435C2132.53 442.091 2110.79 448.213 2084.1 448.213V450.213C2111.07 450.213 2133.25 444.031 2148.72 433.067C2164.22 422.083 2172.94 406.322 2172.94 387.348H2170.94ZM2084.1 448.213C2057.43 448.213 2035.95 441.589 2020.27 429.953C2004.6 418.324 1994.64 401.639 1991.09 381.365L1989.12 381.709C1992.75 402.451 2002.96 419.604 2019.08 431.559C2035.18 443.507 2057.11 450.213 2084.1 450.213V448.213ZM1991.08 381.32L1990.4 378.244L1988.45 378.678L1989.13 381.754L1991.08 381.32ZM1989.42 377.461H1944.31V379.461H1989.42V377.461ZM1943.31 378.571L1943.65 381.648L1945.64 381.427L1945.3 378.351L1943.31 378.571ZM1943.65 381.645C1947.1 413.349 1961.84 440.088 1985.9 458.888C2009.95 477.68 2043.25 488.494 2083.76 488.494V486.494C2043.6 486.494 2010.76 475.775 1987.13 457.312C1963.51 438.856 1949.03 412.615 1945.64 381.429L1943.65 381.645ZM2568.77 382.562L2569.75 382.761L2569.75 382.759L2568.77 382.562ZM2569.45 379.145L2570.43 379.341L2570.67 378.145H2569.45V379.145ZM2524.68 379.145V378.145H2523.88L2523.7 378.928L2524.68 379.145ZM2523.99 382.221L2524.95 382.509L2524.96 382.474L2524.97 382.438L2523.99 382.221ZM2306.95 314.203V313.203H2305.94L2305.95 314.219L2306.95 314.203ZM2573.9 314.203V315.203H2574.9V314.203H2573.9ZM2528.44 278.314V279.314H2529.51L2529.44 278.249L2528.44 278.314ZM2307.64 278.314L2306.64 278.242L2306.56 279.314H2307.64V278.314ZM2422.82 488.494C2500.11 488.494 2557.33 444.151 2569.75 382.761L2567.79 382.364C2555.6 442.653 2499.34 486.494 2422.82 486.494V488.494ZM2569.75 382.759L2570.43 379.341L2568.47 378.948L2567.79 382.366L2569.75 382.759ZM2569.45 378.145H2524.68V380.145H2569.45V378.145ZM2523.7 378.928L2523.02 382.004L2524.97 382.438L2525.65 379.361L2523.7 378.928ZM2523.04 381.933C2511.57 420.057 2475.79 446.162 2423.85 446.162V448.162C2476.5 448.162 2513.18 421.631 2524.95 382.509L2523.04 381.933ZM2423.85 446.162C2389.06 446.162 2360.46 434.205 2340.38 411.802C2320.29 389.385 2308.63 356.402 2307.95 314.187L2305.95 314.219C2306.64 356.77 2318.4 390.266 2338.89 413.137C2359.4 436.022 2388.57 448.162 2423.85 448.162V446.162ZM2306.95 315.203H2573.9V313.203H2306.95V315.203ZM2574.9 314.203V296.43H2572.9V314.203H2574.9ZM2574.9 296.43C2574.9 243.099 2559.89 198.5 2532.87 167.218C2505.83 135.92 2466.84 118.037 2419.06 118.037V120.037C2466.3 120.037 2504.73 137.701 2531.36 168.525C2557.99 199.364 2572.9 243.462 2572.9 296.43H2574.9ZM2419.06 118.037C2371.28 118.037 2331.51 136.525 2303.71 169.059C2275.93 201.578 2260.15 248.054 2260.15 303.949H2262.15C2262.15 248.419 2277.82 202.439 2305.24 170.358C2332.64 138.292 2371.83 120.037 2419.06 120.037V118.037ZM2260.15 303.949V304.291H2262.15V303.949H2260.15ZM2260.15 304.291C2260.15 360.693 2275.67 406.751 2303.81 438.722C2331.96 470.709 2372.67 488.494 2422.82 488.494V486.494C2373.17 486.494 2333.04 468.904 2305.31 437.401C2277.57 405.884 2262.15 360.34 2262.15 304.291H2260.15ZM2418.72 160.369C2448.9 160.369 2474.78 170.621 2493.75 190.438C2512.73 210.265 2524.89 239.757 2527.44 278.38L2529.44 278.249C2526.86 239.284 2514.58 209.303 2495.19 189.055C2475.8 168.796 2449.38 158.369 2418.72 158.369V160.369ZM2528.44 277.314H2307.64V279.314H2528.44V277.314ZM2308.63 278.387C2311.36 240.8 2323.93 211.301 2343.26 191.209C2362.59 171.125 2388.72 160.369 2418.72 160.369V158.369C2388.22 158.369 2361.55 169.318 2341.82 189.822C2322.1 210.318 2309.39 240.292 2306.64 278.242L2308.63 278.387Z" fill="white" fill-opacity="0.15"/>
</svg>
