<svg width="2261" height="622" viewBox="0 0 2261 622" fill="none" xmlns="http://www.w3.org/2000/svg">
<path d="M1.96484 620.629H0.964844V621.629H1.96484V620.629ZM47.082 620.629V621.629H48.082V620.629H47.082ZM47.082 426.83V425.83H46.082V426.83H47.082ZM48.4492 426.83L49.3744 426.451L49.12 425.83H48.4492V426.83ZM48.4492 220.727V221.727H49.1192L49.374 221.107L48.4492 220.727ZM47.082 220.727H46.082V221.727H47.082V220.727ZM47.082 145.531H48.082V144.531H47.082V145.531ZM1.96484 145.531V144.531H0.964844V145.531H1.96484ZM1.96484 621.629H47.082V619.629H1.96484V621.629ZM48.082 620.629V426.83H46.082V620.629H48.082ZM47.082 427.83H48.4492V425.83H47.082V427.83ZM47.524 427.209C67.1549 475.081 112.629 508.494 169.787 508.494V506.494C113.469 506.494 68.7084 473.598 49.3744 426.451L47.524 427.209ZM169.787 508.494C214.685 508.494 252.483 490.249 279.037 457.971C305.578 425.709 320.836 379.495 320.836 323.607H318.836C318.836 379.145 303.674 424.875 277.493 456.7C251.325 488.508 214.098 506.494 169.787 506.494V508.494ZM320.836 323.607V323.266H318.836V323.607H320.836ZM320.836 323.266C320.836 267.55 305.664 221.251 279.081 188.86C252.483 156.453 214.514 138.037 169.104 138.037V140.037C213.927 140.037 251.325 158.194 277.535 190.129C303.759 222.082 318.836 267.898 318.836 323.266H320.836ZM169.104 138.037C111.585 138.037 67.4899 171.809 47.5244 220.346L49.374 221.107C69.057 173.257 112.462 140.037 169.104 140.037V138.037ZM48.4492 219.727H47.082V221.727H48.4492V219.727ZM48.082 220.727V145.531H46.082V220.727H48.082ZM47.082 144.531H1.96484V146.531H47.082V144.531ZM0.964844 145.531V620.629H2.96484V145.531H0.964844ZM161.242 466.162C128.231 466.162 99.9738 451.867 79.9479 426.93C59.9101 401.978 48.082 366.325 48.082 323.607H46.082C46.082 366.681 58.0088 402.805 78.3885 428.183C98.7802 453.575 127.603 468.162 161.242 468.162V466.162ZM48.082 323.607V323.266H46.082V323.607H48.082ZM48.082 323.266C48.082 280.374 59.826 244.636 79.8209 219.642C99.803 194.665 128.059 180.369 161.242 180.369V178.369C127.433 178.369 98.6091 192.955 78.2592 218.393C57.922 243.814 46.082 280.024 46.082 323.266H48.082ZM161.242 180.369C195.12 180.369 222.94 194.246 242.315 218.993C261.709 243.765 272.693 279.501 272.693 323.266H274.693C274.693 279.189 263.632 242.977 243.89 217.76C224.129 192.52 195.723 178.369 161.242 178.369V180.369ZM272.693 323.266V323.607H274.693V323.266H272.693ZM272.693 323.607C272.693 367.029 261.71 402.68 242.315 427.453C222.939 452.201 195.119 466.162 161.242 466.162V468.162C195.725 468.162 224.13 453.925 243.89 428.686C263.631 403.47 274.693 367.344 274.693 323.607H272.693ZM524.914 507.494L524.911 508.494H524.914V507.494ZM525.256 467.162L525.251 468.162H525.256V467.162ZM524.914 508.494C573.537 508.494 614.322 490.618 642.94 458.47C671.549 426.334 687.926 380.022 687.926 323.266H685.926C685.926 379.644 669.661 425.447 641.446 457.14C613.241 488.824 573.019 506.494 524.914 506.494V508.494ZM687.926 323.266V322.582H685.926V323.266H687.926ZM687.926 322.582C687.926 265.824 671.463 219.682 642.81 187.717C614.148 155.741 573.364 138.037 524.914 138.037V140.037C572.851 140.037 613.073 157.538 641.32 189.052C669.577 220.575 685.926 266.205 685.926 322.582H687.926ZM524.914 138.037C476.292 138.037 435.508 155.827 406.889 187.846C378.28 219.854 361.902 265.996 361.902 322.582H363.902C363.902 266.375 380.167 220.744 408.381 189.179C436.585 157.623 476.807 140.037 524.914 140.037V138.037ZM361.902 322.582V323.266H363.902V322.582H361.902ZM361.902 323.266C361.902 379.85 378.194 426.077 406.759 458.213C435.335 490.361 476.118 508.322 524.911 508.494L524.918 506.494C476.64 506.324 436.417 488.568 408.254 456.885C380.082 425.191 363.902 379.474 363.902 323.266H361.902ZM525.261 466.162C490.5 465.993 461.824 452.693 441.819 428.29C421.797 403.865 410.387 368.224 410.387 323.266H408.387C408.387 368.542 419.877 404.678 440.272 429.558C460.685 454.458 489.943 467.99 525.251 468.162L525.261 466.162ZM410.387 323.266V322.582H408.387V323.266H410.387ZM410.387 322.582C410.387 277.969 421.881 242.412 441.904 218.029C461.91 193.666 490.501 180.369 524.914 180.369V178.369C489.942 178.369 460.769 191.904 440.358 216.759C419.964 241.595 408.387 277.644 408.387 322.582H410.387ZM524.914 180.369C559.33 180.369 588.006 193.582 608.097 217.903C628.204 242.243 639.783 277.799 639.783 322.582H641.783C641.783 277.473 630.12 241.422 609.639 216.629C589.142 191.816 559.883 178.369 524.914 178.369V180.369ZM639.783 322.582V323.266H641.783V322.582H639.783ZM639.783 323.266C639.783 368.05 628.289 403.779 608.264 428.291C588.257 452.782 559.667 466.162 525.256 466.162V468.162C560.23 468.162 589.403 454.54 609.813 429.556C630.206 404.593 641.783 368.373 641.783 323.266H639.783ZM747.082 501H746.082V502H747.082V501ZM792.199 501V502H793.199V501H792.199ZM908.752 187.23L908.371 188.155L909.752 188.724V187.23H908.752ZM908.752 143.139H909.752V142.403L909.05 142.184L908.752 143.139ZM791.174 207.396V208.396H791.919L792.132 207.682L791.174 207.396ZM789.807 207.396H788.807V208.396H789.807V207.396ZM789.807 145.531H790.807V144.531H789.807V145.531ZM747.082 145.531V144.531H746.082V145.531H747.082ZM747.082 502H792.199V500H747.082V502ZM793.199 501V278.832H791.199V501H793.199ZM793.199 278.832C793.199 250.473 801.18 226.622 815.35 209.88C829.507 193.153 849.901 183.445 874.914 183.445V181.445C849.341 181.445 828.378 191.391 813.824 208.588C799.283 225.768 791.199 250.111 791.199 278.832H793.199ZM874.914 183.445C890.228 183.445 902.729 185.832 908.371 188.155L909.133 186.306C903.154 183.844 890.362 181.445 874.914 181.445V183.445ZM909.752 187.23V143.139H907.752V187.23H909.752ZM909.05 142.184C903.505 140.451 892.808 138.037 880.725 138.037V140.037C892.567 140.037 903.061 142.408 908.454 144.093L909.05 142.184ZM880.725 138.037C836.164 138.037 802.981 164.33 790.216 207.111L792.132 207.682C804.66 165.697 837.102 140.037 880.725 140.037V138.037ZM791.174 206.396H789.807V208.396H791.174V206.396ZM790.807 207.396V145.531H788.807V207.396H790.807ZM789.807 144.531H747.082V146.531H789.807V144.531ZM746.082 145.531V501H748.082V145.531H746.082ZM1096.74 504.76L1096.93 505.742L1097.74 505.587V504.76H1096.74ZM1096.74 467.846H1097.74V466.704L1096.61 466.854L1096.74 467.846ZM1026.33 183.471V182.471H1025.33V183.471H1026.33ZM1096.74 183.471V184.471H1097.74V183.471H1096.74ZM1096.74 145.531H1097.74V144.531H1096.74V145.531ZM1026.33 145.531H1025.33V146.531H1026.33V145.531ZM1026.33 49.4863H1027.33V48.4863H1026.33V49.4863ZM979.846 49.4863V48.4863H978.846V49.4863H979.846ZM979.846 145.531V146.531H980.846V145.531H979.846ZM927.551 145.531V144.531H926.551V145.531H927.551ZM927.551 183.471H926.551V184.471H927.551V183.471ZM979.846 183.471H980.846V182.471H979.846V183.471ZM1067 508.494C1078.01 508.494 1089.69 507.12 1096.93 505.742L1096.55 503.777C1089.43 505.134 1077.87 506.494 1067 506.494V508.494ZM1097.74 504.76V467.846H1095.74V504.76H1097.74ZM1096.61 466.854C1091.47 467.539 1084.36 468.555 1076.23 468.555V470.555C1084.51 470.555 1091.75 469.519 1096.87 468.837L1096.61 466.854ZM1076.23 468.555C1059.76 468.555 1047.61 465.238 1039.55 457.266C1031.5 449.294 1027.33 436.459 1027.33 416.918H1025.33C1025.33 436.683 1029.54 450.167 1038.14 458.687C1046.75 467.207 1059.55 470.555 1076.23 470.555V468.555ZM1027.33 416.918V183.471H1025.33V416.918H1027.33ZM1026.33 184.471H1096.74V182.471H1026.33V184.471ZM1097.74 183.471V145.531H1095.74V183.471H1097.74ZM1096.74 144.531H1026.33V146.531H1096.74V144.531ZM1027.33 145.531V49.4863H1025.33V145.531H1027.33ZM1026.33 48.4863H979.846V50.4863H1026.33V48.4863ZM978.846 49.4863V145.531H980.846V49.4863H978.846ZM979.846 144.531H927.551V146.531H979.846V144.531ZM926.551 145.531V183.471H928.551V145.531H926.551ZM927.551 184.471H979.846V182.471H927.551V184.471ZM978.846 183.471V417.602H980.846V183.471H978.846ZM978.846 417.602C978.846 448.839 986.053 471.618 1000.79 486.577C1015.54 501.54 1037.64 508.494 1067 508.494V506.494C1037.92 506.494 1016.44 499.605 1002.22 485.174C987.994 470.739 980.846 448.571 980.846 417.602H978.846ZM1178.43 501H1177.43V502H1178.43V501ZM1223.55 501V502H1224.55V501H1223.55ZM1223.55 183.471V182.471H1222.55V183.471H1223.55ZM1299.77 183.471V184.471H1300.77V183.471H1299.77ZM1299.77 145.531H1300.77V144.531H1299.77V145.531ZM1223.21 145.531H1222.21V146.531H1223.21V145.531ZM1302.16 41.2832L1301.98 42.2671L1303.16 42.4814V41.2832H1302.16ZM1302.16 4.02734H1303.16V3.18625L1302.33 3.04213L1302.16 4.02734ZM1178.43 145.531V146.531H1179.43V145.531H1178.43ZM1128.87 145.531V144.531H1127.87V145.531H1128.87ZM1128.87 183.471H1127.87V184.471H1128.87V183.471ZM1178.43 183.471H1179.43V182.471H1178.43V183.471ZM1178.43 502H1223.55V500H1178.43V502ZM1224.55 501V183.471H1222.55V501H1224.55ZM1223.55 184.471H1299.77V182.471H1223.55V184.471ZM1300.77 183.471V145.531H1298.77V183.471H1300.77ZM1299.77 144.531H1223.21V146.531H1299.77V144.531ZM1224.21 145.531V95.9707H1222.21V145.531H1224.21ZM1224.21 95.9707C1224.21 76.4604 1228.87 62.5733 1237.64 53.5587C1246.4 44.5495 1259.42 40.2324 1276.53 40.2324V38.2324C1259.11 38.2324 1245.47 42.6312 1236.2 52.1644C1226.94 61.6923 1222.21 76.1743 1222.21 95.9707H1224.21ZM1276.53 40.2324C1285.71 40.2324 1294.53 40.9131 1301.98 42.2671L1302.34 40.2993C1294.75 38.919 1285.8 38.2324 1276.53 38.2324V40.2324ZM1303.16 41.2832V4.02734H1301.16V41.2832H1303.16ZM1302.33 3.04213C1294.42 1.66586 1281.71 0.292969 1269.01 0.292969V2.29297C1281.59 2.29297 1294.18 3.65446 1301.99 5.01256L1302.33 3.04213ZM1269.01 0.292969C1239.12 0.292969 1216.17 7.76645 1200.7 23.4922C1185.24 39.2147 1177.43 63.0122 1177.43 95.2871H1179.43C1179.43 63.3042 1187.17 40.1046 1202.13 24.8945C1217.08 9.68765 1239.42 2.29297 1269.01 2.29297V0.292969ZM1177.43 95.2871V145.531H1179.43V95.2871H1177.43ZM1178.43 144.531H1128.87V146.531H1178.43V144.531ZM1127.87 145.531V183.471H1129.87V145.531H1127.87ZM1128.87 184.471H1178.43V182.471H1128.87V184.471ZM1177.43 183.471V501H1179.43V183.471H1177.43ZM1471.01 507.494L1471 508.494H1471.01V507.494ZM1471.35 467.162L1471.34 468.162H1471.35V467.162ZM1471.01 508.494C1519.63 508.494 1560.42 490.618 1589.03 458.47C1617.64 426.334 1634.02 380.022 1634.02 323.266H1632.02C1632.02 379.644 1615.75 425.447 1587.54 457.14C1559.33 488.824 1519.11 506.494 1471.01 506.494V508.494ZM1634.02 323.266V322.582H1632.02V323.266H1634.02ZM1634.02 322.582C1634.02 265.824 1617.56 219.682 1588.9 187.717C1560.24 155.741 1519.46 138.037 1471.01 138.037V140.037C1518.94 140.037 1559.17 157.538 1587.41 189.052C1615.67 220.575 1632.02 266.205 1632.02 322.582H1634.02ZM1471.01 138.037C1422.39 138.037 1381.6 155.827 1352.98 187.846C1324.37 219.854 1308 265.996 1308 322.582H1310C1310 266.375 1326.26 220.744 1354.47 189.179C1382.68 157.623 1422.9 140.037 1471.01 140.037V138.037ZM1308 322.582V323.266H1310V322.582H1308ZM1308 323.266C1308 379.85 1324.29 426.077 1352.85 458.213C1381.43 490.361 1422.21 508.322 1471 508.494L1471.01 506.494C1422.73 506.324 1382.51 488.568 1354.35 456.885C1326.18 425.191 1310 379.474 1310 323.266H1308ZM1471.35 466.162C1436.59 465.993 1407.92 452.693 1387.91 428.29C1367.89 403.865 1356.48 368.224 1356.48 323.266H1354.48C1354.48 368.542 1365.97 404.678 1386.37 429.558C1406.78 454.458 1436.04 467.99 1471.34 468.162L1471.35 466.162ZM1356.48 323.266V322.582H1354.48V323.266H1356.48ZM1356.48 322.582C1356.48 277.969 1367.97 242.412 1388 218.029C1408 193.666 1436.59 180.369 1471.01 180.369V178.369C1436.04 178.369 1406.86 191.904 1386.45 216.759C1366.06 241.595 1354.48 277.644 1354.48 322.582H1356.48ZM1471.01 180.369C1505.42 180.369 1534.1 193.582 1554.19 217.903C1574.3 242.243 1585.88 277.799 1585.88 322.582H1587.88C1587.88 277.473 1576.21 241.422 1555.73 216.629C1535.24 191.816 1505.98 178.369 1471.01 178.369V180.369ZM1585.88 322.582V323.266H1587.88V322.582H1585.88ZM1585.88 323.266C1585.88 368.05 1574.38 403.779 1554.36 428.291C1534.35 452.782 1505.76 466.162 1471.35 466.162V468.162C1506.32 468.162 1535.5 454.54 1555.91 429.556C1576.3 404.593 1587.88 368.373 1587.88 323.266H1585.88ZM1696.25 501H1695.25V502H1696.25V501ZM1741.37 501V502H1742.37V501H1741.37ZM1741.37 7.78711H1742.37V6.78711H1741.37V7.78711ZM1696.25 7.78711V6.78711H1695.25V7.78711H1696.25ZM1696.25 502H1741.37V500H1696.25V502ZM1742.37 501V7.78711H1740.37V501H1742.37ZM1741.37 6.78711H1696.25V8.78711H1741.37V6.78711ZM1695.25 7.78711V501H1697.25V7.78711H1695.25ZM1825.79 501H1824.79V502H1825.79V501ZM1871.25 501V502H1872.25V501H1871.25ZM1871.25 145.531H1872.25V144.531H1871.25V145.531ZM1825.79 145.531V144.531H1824.79V145.531H1825.79ZM1848.69 82.2734C1865.66 82.2734 1879.43 68.4882 1879.43 51.1953H1877.43C1877.43 67.3985 1864.54 80.2734 1848.69 80.2734V82.2734ZM1879.43 51.1953C1879.43 33.8875 1865.64 20.459 1848.69 20.459V22.459C1864.55 22.459 1877.43 35.007 1877.43 51.1953H1879.43ZM1848.69 20.459C1831.41 20.459 1817.62 33.8801 1817.62 51.1953H1819.62C1819.62 35.0145 1832.48 22.459 1848.69 22.459V20.459ZM1817.62 51.1953C1817.62 68.4956 1831.39 82.2734 1848.69 82.2734V80.2734C1832.5 80.2734 1819.62 67.3911 1819.62 51.1953H1817.62ZM1825.79 502H1871.25V500H1825.79V502ZM1872.25 501V145.531H1870.25V501H1872.25ZM1871.25 144.531H1825.79V146.531H1871.25V144.531ZM1824.79 145.531V501H1826.79V145.531H1824.79ZM2097.18 507.494L2097.18 508.494H2097.18V507.494ZM2097.52 467.162L2097.52 468.162H2097.52V467.162ZM2097.18 508.494C2145.8 508.494 2186.59 490.618 2215.21 458.47C2243.81 426.334 2260.19 380.022 2260.19 323.266H2258.19C2258.19 379.644 2241.93 425.447 2213.71 457.14C2185.51 488.824 2145.28 506.494 2097.18 506.494V508.494ZM2260.19 323.266V322.582H2258.19V323.266H2260.19ZM2260.19 322.582C2260.19 265.824 2243.73 219.682 2215.08 187.717C2186.41 155.741 2145.63 138.037 2097.18 138.037V140.037C2145.12 140.037 2185.34 157.538 2213.59 189.052C2241.84 220.575 2258.19 266.205 2258.19 322.582H2260.19ZM2097.18 138.037C2048.56 138.037 2007.77 155.827 1979.16 187.846C1950.55 219.854 1934.17 265.996 1934.17 322.582H1936.17C1936.17 266.375 1952.43 220.744 1980.65 189.179C2008.85 157.623 2049.07 140.037 2097.18 140.037V138.037ZM1934.17 322.582V323.266H1936.17V322.582H1934.17ZM1934.17 323.266C1934.17 379.85 1950.46 426.077 1979.03 458.213C2007.6 490.361 2048.38 508.322 2097.18 508.494L2097.18 506.494C2048.91 506.324 2008.68 488.568 1980.52 456.885C1952.35 425.191 1936.17 379.474 1936.17 323.266H1934.17ZM2097.53 466.162C2062.77 465.993 2034.09 452.693 2014.08 428.29C1994.06 403.865 1982.65 368.224 1982.65 323.266H1980.65C1980.65 368.542 1992.14 404.678 2012.54 429.558C2032.95 454.458 2062.21 467.99 2097.52 468.162L2097.53 466.162ZM1982.65 323.266V322.582H1980.65V323.266H1982.65ZM1982.65 322.582C1982.65 277.969 1994.15 242.412 2014.17 218.029C2034.18 193.666 2062.77 180.369 2097.18 180.369V178.369C2062.21 178.369 2033.03 191.904 2012.62 216.759C1992.23 241.595 1980.65 277.644 1980.65 322.582H1982.65ZM2097.18 180.369C2131.6 180.369 2160.27 193.582 2180.36 217.903C2200.47 242.243 2212.05 277.799 2212.05 322.582H2214.05C2214.05 277.473 2202.39 241.422 2181.9 216.629C2161.41 191.816 2132.15 178.369 2097.18 178.369V180.369ZM2212.05 322.582V323.266H2214.05V322.582H2212.05ZM2212.05 323.266C2212.05 368.05 2200.55 403.779 2180.53 428.291C2160.52 452.782 2131.93 466.162 2097.52 466.162V468.162C2132.5 468.162 2161.67 454.54 2182.08 429.556C2202.47 404.593 2214.05 368.373 2214.05 323.266H2212.05Z" fill="white" fill-opacity="0.1"/>
</svg>
